<!-- sample rectangle -->
<svg width="300" height="300" viewBox="0 0 300 300" fill="none" xmlns="http://www.w3.org/2000/svg">
<g clip-path="url(#clip0_44_426)">
<path d="M53.9956 200.818L12.5514 212.193L8.35856 196.967L28.5694 184.24L28.0833 182.474L4.19671 181.852L0 166.626L41.4442 155.25L43.7992 163.802L11.9685 172.539L12.5921 174.801L37.7549 175.311L40.565 185.518L19.1999 198.8L19.808 201.006L51.6368 192.269L53.9917 200.82L53.9956 200.818Z" fill="#EFEFEF"/>
<path d="M46.0128 134.137C44.0258 147.147 33.0102 155.136 20.4317 153.222C7.91127 151.318 -0.108375 140.431 1.87669 127.423C3.87143 114.357 14.767 106.407 27.2874 108.313C39.8659 110.227 48.0076 121.073 46.0128 134.139V134.137ZM37.7414 132.879C38.9596 124.903 33.9127 118.463 26.0383 117.265C18.0496 116.05 11.312 120.696 10.0939 128.672C8.87572 136.647 13.9129 143.143 21.9016 144.359C29.7779 145.558 36.5252 140.854 37.7414 132.879Z" fill="#EFEFEF"/>
<path d="M45.0621 89.0756L40.693 96.9272L54.0171 104.319L49.7023 112.072L12.1313 91.2314L21.0109 75.2789C25.7421 66.7777 33.5022 64.7322 40.7162 68.7343C45.4746 71.3734 48.031 75.7371 47.7017 80.9206L65.9585 82.8675L61.4209 91.0187L45.0621 89.0795V89.0756ZM22.8081 87.0069L34.9818 93.7583L38.7951 86.9064C41.4948 82.0555 39.6705 78.6217 36.413 76.8159C33.2563 75.0662 29.3501 75.2538 26.6775 80.0544L22.8081 87.0069Z" fill="#EFEFEF"/>
<path d="M81.92 69.7377C71.8553 78.322 58.3297 77.1407 50.1009 67.5259C41.8741 57.9131 42.7649 44.5088 52.6999 36.0347C60.4988 29.3819 71.069 28.3436 79.5709 33.9621L72.382 40.0948C68.0459 37.8482 62.4006 38.2968 58.0431 42.0147C51.9427 47.2175 51.5825 55.4286 56.9799 61.7354C62.3037 67.9551 70.6391 68.9741 76.9138 63.6224C81.9258 59.3477 83.2214 53.1994 81.0059 47.7917L71.8107 55.6336L67.6043 50.717L83.2486 37.3746C83.4403 37.5118 84.3408 38.4747 84.5635 38.7357C92.6045 48.132 91.3341 61.7083 81.922 69.7358L81.92 69.7377Z" fill="#EFEFEF"/>
<path d="M124.846 45.8062L99.2122 55.9256L83.4072 16.024L108.456 6.1347L111.154 12.9441L94.3667 19.5718L97.9282 28.5641L113.969 22.2303L116.394 28.3495L100.353 34.6814L104.778 45.8545L122.152 38.9948L124.85 45.8042L124.846 45.8062Z" fill="#EFEFEF"/>
<path d="M125.226 45.0676L122.636 2.23692L134.878 1.49837L150.977 30.3892L153.266 30.2519L151.467 0.498798L159.762 -0.00195312L162.351 42.8287L149.881 43.5808L134.01 14.6764L131.721 14.8137L133.52 44.5668L125.226 45.0656V45.0676Z" fill="#EFEFEF"/>
<path d="M163.697 43.1342L175.996 2.01849L189.45 6.02837C203.398 10.1871 209.016 20.9968 205.408 33.0573C201.752 45.2822 191.044 51.2854 177.205 47.1595L163.697 43.1323V43.1342ZM182.025 12.0567L174.284 37.9314L179.337 39.4375C188.947 42.3028 194.662 37.7961 196.825 30.5594C198.99 23.3226 196.688 16.4262 187.022 13.5454L182.025 12.0567Z" fill="#EFEFEF"/>
<path d="M222.614 57.3775L211.433 49.6768L203.251 57.3872L195.75 52.2212L228.648 22.7484L241.763 31.7793L225.848 72.9492L218.301 67.7502L222.616 57.3756L222.614 57.3775ZM216.598 44.824L225.325 50.8349L232.035 34.6736L229.347 32.8214L216.598 44.824Z" fill="#EFEFEF"/>
<path d="M235.879 88.3545C228.117 77.6473 230.385 64.2856 240.645 56.871C250.906 49.4564 264.216 51.4227 271.878 61.9906C277.893 70.2869 278.079 80.8877 271.787 88.8958L266.242 81.2473C268.835 77.1137 268.839 71.4604 265.479 66.8261C260.775 60.3376 252.606 59.3167 245.874 64.1812C239.236 68.9779 237.549 77.1891 242.387 83.8632C246.25 89.1936 252.285 90.9781 257.864 89.2071L250.774 79.428L256.021 75.6366L268.084 92.2754C267.931 92.4552 266.897 93.2731 266.62 93.4761C256.592 100.722 243.138 98.3656 235.881 88.3545H235.879Z" fill="#EFEFEF"/>
<path d="M256.327 132.974L248.297 106.646L289.416 94.147L297.262 119.871L290.243 122.003L284.985 104.763L275.72 107.58L280.744 124.055L274.44 125.971L269.416 109.496L257.903 112.996L263.345 130.839L256.327 132.972V132.974Z" fill="#EFEFEF"/>
<path d="M257.026 133.412L300 134.282L299.752 146.523L269.608 160.219L269.562 162.508L299.415 163.111L299.247 171.406L256.272 170.536L256.526 158.065L286.664 144.597L286.711 142.308L256.857 141.705L257.026 133.41V133.412Z" fill="#EFEFEF"/>
<path d="M255.902 170.514L262.915 173.028L257.299 188.642C255.498 193.649 257.62 196.72 260.641 197.802C263.5 198.827 266.812 198.251 268.768 192.812L270.162 188.936C272.699 181.883 278.883 178.567 285.355 180.887C291.936 183.246 294.649 189.75 292.034 197.019L285.876 214.142L278.865 211.628L284.501 195.96C285.663 192.729 284.39 190.512 282.018 189.661C279.861 188.887 277.465 189.792 276.303 193.023L274.986 196.685C271.558 206.215 264.284 208.836 257.434 206.381C250.476 203.887 246.337 197.114 249.802 187.476L255.9 170.514H255.902Z" fill="#EFEFEF"/>
<path d="M46.9462 232.385C50.5357 232.385 53.4455 229.48 53.4455 225.897C53.4455 222.313 50.5357 219.408 46.9462 219.408C43.3567 219.408 40.4468 222.313 40.4468 225.897C40.4468 229.48 43.3567 232.385 46.9462 232.385Z" fill="#EFEFEF" stroke="#1A171B" stroke-width="0.7" stroke-miterlimit="10"/>
<path d="M255.471 232.385C259.06 232.385 261.97 229.48 261.97 225.897C261.97 222.313 259.06 219.408 255.471 219.408C251.881 219.408 248.971 222.313 248.971 225.897C248.971 229.48 251.881 232.385 255.471 232.385Z" fill="#EFEFEF" stroke="#1A171B" stroke-width="0.7" stroke-miterlimit="10"/>
<path d="M53.7979 266.152L75.742 229.255L89.343 237.317L83.6319 260.481L85.2083 261.417L102.845 245.321L116.446 253.384L94.5042 290.281L86.8661 285.753L103.719 257.417L101.699 256.22L83.2213 273.28L74.1055 267.877L80.2621 243.514L78.2906 242.346L61.4379 270.682L53.7998 266.154L53.7979 266.152Z" fill="#EFEFEF"/>
<path d="M133.805 287.251L120.413 284.991L116.262 295.431L107.278 293.916L124.613 253.324L140.321 255.975L143.329 300L134.289 298.475L133.806 287.253L133.805 287.251ZM123.037 278.414L133.491 280.177L132.73 262.699L129.509 262.156L123.037 278.414ZM128.481 246.259C128.824 244.229 130.993 243.435 134.213 243.978C137.436 244.521 139.278 245.992 138.933 248.024C138.588 250.054 136.363 250.839 133.142 250.296C129.865 249.743 128.134 248.291 128.479 246.259H128.481ZM136.787 247.661C136.959 246.646 135.706 246.143 133.899 245.838C132.147 245.542 130.801 245.606 130.628 246.621C130.466 247.58 131.709 248.138 133.46 248.432C135.269 248.738 136.624 248.618 136.787 247.659V247.661Z" fill="#EFEFEF"/>
<path d="M173.14 297.663L153.722 299.256L150.201 256.491L159.053 255.764L161.974 291.23L172.54 290.362L173.14 297.661V297.663Z" fill="#EFEFEF"/>
<path d="M182.953 295.516L174.159 261.028L165.384 263.26L163.573 256.162L189.733 249.513L191.544 256.611L182.769 258.842L191.564 293.33L182.955 295.518L182.953 295.516Z" fill="#EFEFEF"/>
<path d="M208.648 287.288L190.678 248.307L198.748 244.598L216.718 283.58L208.648 287.288Z" fill="#EFEFEF"/>
<path d="M228.213 278.392L201.721 244.598L212.779 235.96C224.244 227.002 236.327 228.679 244.099 238.591C251.977 248.639 250.691 260.833 239.317 269.719L228.215 278.394L228.213 278.392ZM213.411 245.492L230.083 266.759L234.236 263.515C242.133 257.343 241.756 250.083 237.092 244.136C232.429 238.189 225.461 236.076 217.516 242.284L213.409 245.494L213.411 245.492Z" fill="#EFEFEF"/>
<path d="M176.576 101.082C182.008 94.1431 196.678 106.236 195.944 113.317C195.168 120.832 176.448 143.816 173.235 152.673C168.943 156.372 155.141 150.254 155.515 144.168C155.662 141.776 174.517 103.708 176.574 101.082H176.576Z" fill="#FF1DFF"/>
<path d="M167.164 87.9272C178.412 96.3278 164.644 104.769 162.978 114.883C158.807 110.289 151.556 107.998 143.686 104.599C147.764 91.6084 151.227 76.0233 167.164 87.9272Z" fill="#FF1DFF"/>
<path d="M115.351 91.5562C117.305 73.2469 130.073 73.2314 142.381 83.5558L135.962 102.992C130.701 101.337 114.685 97.7914 115.351 91.5542V91.5562Z" fill="#FF1DFF"/>
<path d="M130.764 207.523C120.115 205.439 113.772 203.508 111.225 199.401C99.8437 181.042 89.6821 159.763 79.6348 140.556L107.693 97.5729L154.589 115.426C156.578 116.414 156.961 117.64 156.394 119.007C146.807 138.667 128.733 131.535 112.345 126.673L120.787 135.678L110.952 147.507C127.195 140.709 132.869 156.379 140.908 166.984L142.266 162.846C152.466 176.707 158.402 211.437 130.76 207.523H130.764Z" fill="#FF1DFF"/>
<path d="M184.125 211.292C164.342 204.979 156.845 205.66 154.281 182.817C153.586 176.616 157.554 188.052 158.305 186.455C157.54 173.436 150.944 161.623 142.996 151.708C150.884 150.538 154.544 157.845 162.419 159.424C166.906 160.325 171.901 159.277 175.458 160.316C180.236 161.712 187.477 174.091 196.926 166.572C199.546 164.486 201.585 157.363 205.672 155.869C205.193 176.21 197.274 195.991 184.127 211.296L184.125 211.292Z" fill="#FF1DFF"/>
<path d="M213.3 133.774C212.995 135.47 195.768 161.663 194.279 162.537C189.344 165.431 178.855 157.081 179.882 151.584C180.279 149.454 196.851 122.023 198.675 120.366C205.976 113.738 214.482 127.214 213.3 133.772V133.774Z" fill="#FF1DFF"/>
</g>
<defs>
<clipPath id="clip0_44_426">
<rect width="300" height="300" fill="white"/>
</clipPath>
</defs>
</svg>
